<svg width="80" height="80" viewBox="0 0 80 80" fill="none" xmlns="http://www.w3.org/2000/svg">
<path d="M13 69.9001L3 10.8001L21.4 3.1001L33.2 10.1001L44 4.3001L66.5 12.9001L53.9 77.0001L13 69.9001Z" fill="url(#paint0_linear)"/>
<path d="M44 4.30005L33.2 10.1L36.4 34.2001L43 38.8L45.0999 52.8L52.5 53.5L46.9 27.6L44 4.30005Z" fill="url(#paint1_linear)"/>
<path d="M36.2999 36.7001L33.1999 10.1001L21.3999 3.1001L26.3999 31.8001L28.1999 49.7001L38.2999 49.3001L37.4999 44.8001L36.2999 36.7001Z" fill="url(#paint2_linear)"/>
<path d="M13 69.9001L3 10.8001L21.4 3.1001L26.6 32.9001L13 69.9001Z" fill="url(#paint3_linear)"/>
<path d="M26.6 32.7001L21.4 3.1001L3 10.8001L23.6 28.7001L26.6 32.7001Z" fill="url(#paint4_linear)"/>
<path d="M13 69.9001L3 10.8L23.6 28.7001L44 55.8L13 69.9001Z" fill="url(#paint5_linear)"/>
<path d="M13 69.9L30.5 57.2L53.9 77L13 69.9Z" fill="url(#paint6_linear)"/>
<path d="M38.7001 54.2L30.6001 61.7999L53.9001 77L57.9001 56.4L38.7001 54.2Z" fill="url(#paint7_linear)"/>
<path d="M13 69.9001L30.6 61.8L53.9 77L13 69.9001Z" fill="url(#paint8_linear)"/>
<path d="M76.9999 28.1L67.4999 4.5L50.0999 3L23.3999 28.7L30.1999 61.8L44.5999 70.9L76.9999 51.7L68.8999 36.5L76.9999 28.1Z" fill="url(#paint9_linear)"/>
<path d="M52.0999 26.9L50.0999 3L23.3999 28.7L43.0999 34.8L52.0999 26.9Z" fill="url(#paint10_linear)"/>
<path d="M47.3999 5.6001L23.3999 28.7001L43.0999 34.8001L53.7999 46.3001L50.3999 6.7001L47.3999 5.6001Z" fill="url(#paint11_linear)"/>
<path d="M43.1 34.7999L47.6 30.7999L46.9001 27.5999L44.5 8.3999L34.3 18.1999L36.2001 32.6999L43.1 34.7999Z" fill="url(#paint12_linear)"/>
<path d="M36.2 32.7L34.2 18.3L25.5 26.7L26 29.5L36.2 32.7Z" fill="url(#paint13_linear)"/>
<path d="M47.3999 5.6001L23.3999 28.7001L50.4999 6.7001L47.3999 5.6001Z" fill="url(#paint14_linear)"/>
<path d="M44.7998 11.0001L44.4998 8.40015L34.2998 18.2001L34.4998 19.6001L44.7998 11.0001Z" fill="url(#paint15_linear)"/>
<path d="M34.4 19.6L34.2 18.3L25.5 26.7V26.9L34.4 19.6Z" fill="url(#paint16_linear)"/>
<path d="M59.7001 19.8999L43.1001 34.7999L44.6001 70.8999L77.0001 51.6999L68.9001 36.4999L59.7001 19.8999Z" fill="url(#paint17_linear)"/>
<path d="M52.2 28.8L53.7 47.7L77 51.7L68.9 36.5L64.2 28L52.2 28.8Z" fill="url(#paint18_linear)"/>
<path d="M52.2 28.8L53.7 47.7L57.4 48.3L68.9 36.5L64.2 28L52.2 28.8Z" fill="url(#paint19_linear)"/>
<path d="M43.0999 34.7999L23.3999 28.7L30.1999 61.7999L44.5999 70.9L43.0999 34.7999Z" fill="url(#paint20_linear)"/>
<path d="M36.6 36.7L36.1 32.6L26 29.5L26.4 31.8L29.7 57.4L30.2 59.9L40.7 68L36.6 36.7Z" fill="url(#paint21_linear)"/>
<path d="M30.2 61.8L44.5999 70.9L43.9 53L30.2 61.8Z" fill="url(#paint22_linear)"/>
<path d="M59.7 19.9L68.9 36.5L77 28.1L67.5 4.5L55.5 19.4L59.7 19.9Z" fill="url(#paint23_linear)"/>
<path d="M64.2 28L68.9 36.5L77 28.1L64.2 28Z" fill="url(#paint24_linear)"/>
<path d="M23.3999 28.7L24.9999 36.4L23.3999 28.7Z" fill="url(#paint25_linear)"/>
<path d="M63 17H17V63H63V17Z" fill="url(#paint26_linear)"/>
<g opacity="0.3">
<path opacity="0.3" d="M36.2 34.2L37.9 48.7L43.2 55.8L52.3 53.5L46.6 27.7L45.3 17H34L36.2 34.2Z" fill="url(#paint27_linear)"/>
<g opacity="0.3">
<path opacity="0.3" d="M63.0001 59.8V26.2L59.6001 20L43.1001 34.9L44.2001 63H57.6001L63.0001 59.8Z" fill="url(#paint28_linear)"/>
<path opacity="0.3" d="M63.0001 17H57.4001L55.4001 19.5L59.6001 20L63.0001 26.2V17Z" fill="url(#paint29_linear)"/>
</g>
<path opacity="0.3" d="M26.3999 31.8L30.5999 62.1L38.2999 49.2L37.4999 44.7L36.3999 36.7L34.0999 17H23.8999L26.3999 31.8Z" fill="url(#paint30_linear)"/>
<path opacity="0.3" d="M59.6 20L55.4 19.5L57.4 17H35.7L23.5 28.8L30.3 61.7L32.3 63H44.2L43.1 34.9L59.6 20Z" fill="url(#paint31_linear)"/>
<path opacity="0.3" d="M17 22.9L23.6 28.7L26.6 32.7L23.9 17H17V22.9Z" fill="url(#paint32_linear)"/>
<g opacity="0.3">
<path opacity="0.3" d="M17 22.8999V62.9999H28L30.6 61.6999L23.6 28.6999L17 22.8999Z" fill="url(#paint33_linear)"/>
</g>
</g>
<path d="M39.9 54.2998H22.7V57.1998H39.9V54.2998Z" fill="white"/>
<path d="M39.1001 22.7L36.5001 32.8L33.6001 22.7H30.6001L27.7001 32.8L25.1001 22.7H21.1001L26.0001 40H29.3001L32.1001 30L34.9001 40H38.2001L43.1001 22.7H39.1001Z" fill="white"/>
<path d="M43.8 37.5L46.1 34.8C47.7 36.1 49.3 36.9 51.3 36.9C52.9 36.9 53.8 36.3 53.8 35.3C53.8 34.3 53.2 33.8 50.3 33.1C46.8 32.2 44.6 31.2 44.6 27.8V27.7C44.6 24.6 47.1001 22.5 50.7001 22.5C53.2001 22.5 55.4 23.3 57.1 24.7L55.1 27.6C53.6 26.5 52.1 25.9 50.6 25.9C49.1 25.9 48.4 26.6 48.4 27.4C48.4 28.5 49.1 28.9 52.1 29.7C55.6 30.6 57.6 31.9 57.6 34.9C57.6 38.3 55.0001 40.3 51.2001 40.3C48.5001 40.3 45.9 39.4 43.8 37.5Z" fill="white"/>
<defs>
<linearGradient id="paint0_linear" x1="29.5" y1="4.5434" x2="48.6504" y2="73.4851" gradientUnits="userSpaceOnUse">
<stop offset="0.2849" stop-color="#07C3F2"/>
<stop offset="0.9409" stop-color="#087CFA"/>
</linearGradient>
<linearGradient id="paint1_linear" x1="35.8629" y1="0.620948" x2="45.8381" y2="43.5667" gradientUnits="userSpaceOnUse">
<stop offset="0.0669317" stop-color="#42FFFA"/>
<stop offset="0.3409" stop-color="#07C3F2"/>
<stop offset="0.9409" stop-color="#087CFA"/>
</linearGradient>
<linearGradient id="paint2_linear" x1="19.0848" y1="0.723797" x2="34.7353" y2="40.0078" gradientUnits="userSpaceOnUse">
<stop offset="0.2849" stop-color="#07C3F2"/>
<stop offset="0.9409" stop-color="#087CFA"/>
</linearGradient>
<linearGradient id="paint3_linear" x1="7.2565" y1="-3.9468" x2="24.1618" y2="64.7246" gradientUnits="userSpaceOnUse">
<stop offset="0.0669317" stop-color="#42FFFA"/>
<stop offset="0.3409" stop-color="#07C3F2"/>
<stop offset="0.9409" stop-color="#087CFA"/>
</linearGradient>
<linearGradient id="paint4_linear" x1="13.4705" y1="23.0608" x2="18.5526" y2="17.8035" gradientUnits="userSpaceOnUse">
<stop offset="0.00971316" stop-color="#42FFFA"/>
<stop offset="0.9216" stop-color="#07C3F2" stop-opacity="0"/>
</linearGradient>
<linearGradient id="paint5_linear" x1="-15.4864" y1="25.2276" x2="34.4946" y2="57.3583" gradientUnits="userSpaceOnUse">
<stop offset="0.1985" stop-color="#07C3F2"/>
<stop offset="0.9403" stop-color="#087CFA"/>
</linearGradient>
<linearGradient id="paint6_linear" x1="3.2436" y1="65.9699" x2="32.0142" y2="66.8099" gradientUnits="userSpaceOnUse">
<stop offset="0.1291" stop-color="#1D53B8"/>
<stop offset="0.8696" stop-color="#087CFA"/>
</linearGradient>
<linearGradient id="paint7_linear" x1="42.908" y1="54.2524" x2="49.1434" y2="76.6995" gradientUnits="userSpaceOnUse">
<stop offset="0.2771" stop-color="#087BFA"/>
<stop offset="0.6826" stop-color="#085DFA"/>
</linearGradient>
<linearGradient id="paint8_linear" x1="29.3426" y1="40.3543" x2="33.7527" y2="76.055" gradientUnits="userSpaceOnUse">
<stop offset="0.5232" stop-color="#087BFA"/>
<stop offset="0.9771" stop-color="#086DFA"/>
</linearGradient>
<linearGradient id="paint9_linear" x1="35.3543" y1="13.373" x2="67.7505" y2="60.8778" gradientUnits="userSpaceOnUse">
<stop offset="0.1286" stop-color="#FCF84A"/>
<stop offset="0.4986" stop-color="#07C3F2"/>
</linearGradient>
<linearGradient id="paint10_linear" x1="49.5932" y1="2.6921" x2="46.43" y2="9.3908" gradientUnits="userSpaceOnUse">
<stop stop-color="#73A4AA"/>
<stop offset="0.6751" stop-color="#FCF84A"/>
</linearGradient>
<linearGradient id="paint11_linear" x1="33.1352" y1="-7.9154" x2="44.4534" y2="69.0183" gradientUnits="userSpaceOnUse">
<stop offset="0.1786" stop-color="#FCF84A"/>
<stop offset="0.8591" stop-color="#07C3F2"/>
</linearGradient>
<linearGradient id="paint12_linear" x1="37.2533" y1="7.2424" x2="45.891" y2="44.4293" gradientUnits="userSpaceOnUse">
<stop offset="0.1787" stop-color="#FCF84A"/>
<stop offset="0.9725" stop-color="#12C6EC"/>
</linearGradient>
<linearGradient id="paint13_linear" x1="28.0708" y1="19.718" x2="35.12" y2="34.3902" gradientUnits="userSpaceOnUse">
<stop offset="0.1286" stop-color="#FCF84A"/>
<stop offset="0.9414" stop-color="#07C3F2"/>
</linearGradient>
<linearGradient id="paint14_linear" x1="34.3371" y1="0.188897" x2="39.6492" y2="36.2968" gradientUnits="userSpaceOnUse">
<stop offset="0.1786" stop-color="#FCF84A"/>
<stop offset="0.8591" stop-color="#07C3F2"/>
</linearGradient>
<linearGradient id="paint15_linear" x1="38.3021" y1="8.87325" x2="41.2196" y2="21.4341" gradientUnits="userSpaceOnUse">
<stop offset="0.1787" stop-color="#D3FF8C"/>
<stop offset="0.8762" stop-color="#12C6EC"/>
</linearGradient>
<linearGradient id="paint16_linear" x1="28.8197" y1="20.444" x2="30.8678" y2="24.7067" gradientUnits="userSpaceOnUse">
<stop offset="0.1286" stop-color="#FCF84A"/>
<stop offset="0.9414" stop-color="#07C3F2"/>
</linearGradient>
<linearGradient id="paint17_linear" x1="42.7291" y1="31.6385" x2="63.8115" y2="62.553" gradientUnits="userSpaceOnUse">
<stop stop-color="#07C3F2"/>
<stop offset="0.906" stop-color="#00A0FF"/>
</linearGradient>
<linearGradient id="paint18_linear" x1="73.3031" y1="39.1128" x2="46.8426" y2="42.4729" gradientUnits="userSpaceOnUse">
<stop stop-color="#07C3F2"/>
<stop offset="1" stop-color="#0895F7"/>
</linearGradient>
<linearGradient id="paint19_linear" x1="67.4293" y1="36.9229" x2="48.1222" y2="39.3746" gradientUnits="userSpaceOnUse">
<stop stop-color="#07C3F2"/>
<stop offset="1" stop-color="#0895F7"/>
</linearGradient>
<linearGradient id="paint20_linear" x1="20.3659" y1="24.4131" x2="47.7702" y2="64.5979" gradientUnits="userSpaceOnUse">
<stop offset="0.080633" stop-color="#FCF84A"/>
<stop offset="0.5708" stop-color="#07C3F2"/>
</linearGradient>
<linearGradient id="paint21_linear" x1="23.4837" y1="26.1563" x2="44.4453" y2="69.7857" gradientUnits="userSpaceOnUse">
<stop offset="0.1286" stop-color="#FCF84A"/>
<stop offset="0.4216" stop-color="#07C3F2"/>
</linearGradient>
<linearGradient id="paint22_linear" x1="29.5368" y1="52.3396" x2="47.3601" y2="64.4063" gradientUnits="userSpaceOnUse">
<stop offset="0.09347" stop-color="#087CFA"/>
<stop offset="0.6584" stop-color="#07C3F2"/>
</linearGradient>
<linearGradient id="paint23_linear" x1="60.8143" y1="4.5295" x2="69.9588" y2="36.9165" gradientUnits="userSpaceOnUse">
<stop stop-color="#FCF84A"/>
<stop offset="0.4651" stop-color="#07C3F2"/>
<stop offset="0.9409" stop-color="#087CFA"/>
</linearGradient>
<linearGradient id="paint24_linear" x1="80.5748" y1="30.1939" x2="53.4843" y2="34.184" gradientUnits="userSpaceOnUse">
<stop stop-color="#0863FA"/>
<stop offset="0.9409" stop-color="#1AC8FB"/>
</linearGradient>
<linearGradient id="paint25_linear" x1="22.1413" y1="29.5807" x2="26.4055" y2="35.8336" gradientUnits="userSpaceOnUse">
<stop offset="0.1286" stop-color="#FCF84A"/>
<stop offset="0.4216" stop-color="#07C3F2"/>
</linearGradient>
<linearGradient id="paint26_linear" x1="15.8447" y1="14.9111" x2="56.1055" y2="56.7279" gradientUnits="userSpaceOnUse">
<stop stop-color="#006396"/>
<stop offset="0.0470796" stop-color="#005682"/>
<stop offset="0.1677" stop-color="#003754"/>
<stop offset="0.2832" stop-color="#001F2F"/>
<stop offset="0.3905" stop-color="#000E15"/>
<stop offset="0.4867" stop-color="#000406"/>
<stop offset="0.5623"/>
<stop offset="0.9138"/>
</linearGradient>
<linearGradient id="paint27_linear" x1="36.7453" y1="11.9175" x2="44.7206" y2="46.2533" gradientUnits="userSpaceOnUse">
<stop offset="0.0669317" stop-color="#42FFFA"/>
<stop offset="0.3409" stop-color="#07C3F2"/>
<stop offset="0.9409" stop-color="#0838AF"/>
</linearGradient>
<linearGradient id="paint28_linear" x1="44.4141" y1="30.5191" x2="64.7933" y2="60.4025" gradientUnits="userSpaceOnUse">
<stop offset="0.1825" stop-color="#07C3F2"/>
<stop offset="0.906" stop-color="#00171C"/>
</linearGradient>
<linearGradient id="paint29_linear" x1="58.5771" y1="16.0712" x2="61.6056" y2="26.7971" gradientUnits="userSpaceOnUse">
<stop stop-color="#FCF84A"/>
<stop offset="0.4651" stop-color="#07C3F2"/>
<stop offset="0.9409" stop-color="#087CFA"/>
</linearGradient>
<linearGradient id="paint30_linear" x1="22.3885" y1="14.6046" x2="36.5404" y2="50.1269" gradientUnits="userSpaceOnUse">
<stop offset="0.0167591" stop-color="#086DFA"/>
<stop offset="1" stop-color="#08328E"/>
</linearGradient>
<linearGradient id="paint31_linear" x1="42.2008" y1="14.8437" x2="38.5944" y2="65.1756" gradientUnits="userSpaceOnUse">
<stop offset="0.0186027" stop-color="#00FE80"/>
<stop offset="0.3413" stop-color="#21DE9B"/>
<stop offset="0.9563" stop-color="#0770B1"/>
</linearGradient>
<linearGradient id="paint32_linear" x1="16.1653" y1="6.3517" x2="27.7967" y2="43.2175" gradientUnits="userSpaceOnUse">
<stop offset="0.1985" stop-color="#07C3F2"/>
<stop offset="0.9403" stop-color="#0845D7"/>
</linearGradient>
<linearGradient id="paint33_linear" x1="10.1496" y1="26.7609" x2="30.5114" y2="64.9872" gradientUnits="userSpaceOnUse">
<stop stop-color="#07C3F2"/>
<stop offset="0.9409" stop-color="#0838AF"/>
</linearGradient>
</defs>
</svg>
